<svg width="13" height="29" viewBox="0 0 13 29" fill="none" xmlns="http://www.w3.org/2000/svg">
<g clip-path="url(#clip0_1_664)">
<path d="M5.76 24.0032V21.5032C4.08 21.3832 2.79333 20.9099 1.9 20.0832C1.02 19.2432 0.546667 18.1432 0.48 16.7832H4.18C4.3 17.8366 4.82667 18.4632 5.76 18.6632V15.7432C4 15.4899 2.73333 15.0166 1.96 14.3232C1.18667 13.6166 0.8 12.5766 0.8 11.2032C0.8 9.98989 1.24667 8.98322 2.14 8.18322C3.03333 7.38322 4.24 6.92989 5.76 6.82322V5.04322H7.32V6.84322C10.3333 7.09655 11.9533 8.53656 12.18 11.1632H8.56C8.42667 10.3499 8.01333 9.84989 7.32 9.66322V12.4232C8.98667 12.6632 10.2467 13.1099 11.1 13.7632C11.9533 14.4166 12.38 15.4299 12.38 16.8032C12.38 18.0966 11.9533 19.1766 11.1 20.0432C10.2467 20.9099 8.98667 21.3966 7.32 21.5032V24.0032H5.76ZM8.66 17.2432C8.66 16.8966 8.56667 16.6366 8.38 16.4632C8.19333 16.2766 7.84 16.1232 7.32 16.0032V18.6632C8.21333 18.4766 8.66 18.0032 8.66 17.2432ZM4.4 10.9032C4.4 11.2632 4.49333 11.5432 4.68 11.7432C4.88 11.9299 5.24 12.0766 5.76 12.1832V9.62322C4.85333 9.78322 4.4 10.2099 4.4 10.9032Z" fill="#252B42"/>
</g>
<defs>
<clipPath id="clip0_1_664">
<rect width="13" height="28" fill="white" transform="translate(0 0.303223)"/>
</clipPath>
</defs>
</svg>
