<svg width="89" height="62" viewBox="0 0 89 62" fill="none" xmlns="http://www.w3.org/2000/svg">
<path d="M12.932 54.8032V16.8412L2.868 23.0572V10.4032L15.004 1.89322H28.102V54.8032H12.932ZM61.2465 43.9252C64.4531 43.9252 66.7718 42.7412 68.2025 40.3732C69.6331 38.0052 70.3485 34.3299 70.3485 29.3472V27.2012C70.3485 22.3172 69.6085 18.6666 68.1285 16.2492C66.6485 13.8319 64.3051 12.6232 61.0985 12.6232C54.9318 12.6232 51.8485 17.4826 51.8485 27.2012V29.4212C51.8485 34.3546 52.5885 38.0052 54.0685 40.3732C55.5978 42.7412 57.9905 43.9252 61.2465 43.9252ZM60.8025 55.6912C53.3531 55.6912 47.4578 53.3972 43.1165 48.8092C38.8245 44.1719 36.6785 37.7339 36.6785 29.4952V27.2752C36.6785 19.1352 38.9478 12.7466 43.4865 8.10922C48.0251 3.47189 53.8958 1.15322 61.0985 1.15322C68.3505 1.15322 74.2211 3.39789 78.7105 7.88722C83.2491 12.3272 85.5185 18.6912 85.5185 26.9792V29.0512C85.5185 37.3886 83.2985 43.9252 78.8585 48.6612C74.4185 53.3479 68.3998 55.6912 60.8025 55.6912Z" fill="#252B42"/>
</svg>
